<?xml version="1.0" encoding="UTF-8"?><svg id="Ebene_1" xmlns="http://www.w3.org/2000/svg" viewBox="0 0 834 1194"><defs><style>.cls-1{stroke-dasharray:0 0 7.29 7.29;}.cls-1,.cls-2,.cls-3,.cls-4,.cls-5,.cls-6,.cls-7,.cls-8,.cls-9,.cls-10,.cls-11,.cls-12,.cls-13,.cls-14,.cls-15,.cls-16{fill:none;stroke-miterlimit:10;}.cls-1,.cls-2,.cls-3,.cls-6,.cls-9,.cls-10,.cls-14,.cls-15,.cls-16{stroke:#c6c6c6;}.cls-17{fill:#1d1d1b;}.cls-2{stroke-dasharray:0 0 7.62 7.62;}.cls-3{stroke-dasharray:0 0 7.31 7.31;}.cls-4,.cls-8,.cls-11,.cls-12{stroke:#1d1d1b;}.cls-4,.cls-11{opacity:.2;}.cls-5{stroke-dasharray:0 0 7.88 7.88;}.cls-5,.cls-7,.cls-13{stroke:#b2b2b2;}.cls-6{stroke-dasharray:0 0 7.52 7.52;}.cls-7{stroke-dasharray:0 0 8.35 8.35;}.cls-8,.cls-9,.cls-11{stroke-width:2px;}.cls-10{stroke-dasharray:0 0 7.85 7.85;}.cls-15{stroke-dasharray:0 0 6.03 6.03;}.cls-16{stroke-dasharray:0 0 7.84 7.84;}</style></defs><line class="cls-14" x1="119.13" y1="234.07" x2="115.7" y2="236.13"/><line class="cls-3" x1="109.44" y1="239.9" x2="87.51" y2="253.12"/><polyline class="cls-14" points="84.38 255 80.95 257.07 84.42 259.06"/><line class="cls-10" x1="91.23" y1="262.97" x2="305.74" y2="386.02"/><polyline class="cls-14" points="309.15 387.98 312.62 389.97 309.14 391.95"/><line class="cls-2" x1="302.52" y1="395.71" x2="279.36" y2="408.9"/><polyline class="cls-14" points="276.05 410.78 272.57 412.76 269.11 410.75"/><line class="cls-15" x1="263.9" y1="407.71" x2="256.07" y2="403.16"/><polyline class="cls-14" points="253.47 401.65 250.01 399.64 253.39 397.5"/><polyline class="cls-14" points="260.2 393.21 263.58 391.08 260.12 389.08"/><line class="cls-16" x1="253.33" y1="385.17" x2="39.39" y2="261.81"/><polyline class="cls-14" points="35.99 259.86 32.53 257.86 35.99 255.86"/><line class="cls-1" x1="42.32" y1="252.22" x2="89.73" y2="224.94"/><polyline class="cls-14" points="92.9 223.12 96.36 221.13 92.9 223.12"/><line class="cls-6" x1="86.38" y1="226.88" x2="37.52" y2="255.03"/><line class="cls-14" x1="34.27" y1="256.91" x2="30.8" y2="258.91"/><path class="cls-9" d="m177.12,1006.46l274.7-158.36s.05-.05.05-.09v-72.97c0-.08-.08-.13-.15-.09l-274.7,159.61s-.05.05-.05.09v71.71c0,.08.08.13.15.09Z"/><path class="cls-9" d="m317.38,1016.3l-140.26-81.6c-.07-.04-.15,0-.15.09v71.71s.02.07.05.09l140.36,81.59v.07l55.51,32.24c.07.04.15,0,.15-.09v-71.64s-.02-.07-.05-.09l-55.61-32.37Z"/><path class="cls-9" d="m592.28,856.57l-55.2-32.11c-.07-.04-.15,0-.15.09v71.71s.02.07.05.09l55.3,32.1v.07l190.26,110.75c.07.04.15,0,.15-.09v-72.88s-.02-.07-.05-.09l-190.36-109.64Z"/><path class="cls-9" d="m654.49,1113.62l128.15-74.16s.05-.05.05-.09v-72.96c0-.08-.08-.13-.15-.09l-128.15,75.42s-.05.05-.05.09v71.71c0,.08.08.13.15.09Z"/><path class="cls-9" d="m598.68,1009.38l-79.17-45.99c-.07-.04-.15,0-.15.09v71.71s.02.07.05.09l79.27,45.98v.07l55.51,32.24c.07.04.15,0,.15-.09v-71.64s-.02-.07-.05-.09l-55.61-32.37Z"/><path class="cls-9" d="m373.19,1120.55l146.12-84.03s.05-.05.05-.09v-72.96c0-.08-.08-.13-.15-.09l-146.12,85.28s-.05.05-.05.09v71.71c0,.08.08.13.15.09Z"/><path class="cls-14" d="m194.83,955.41v38s.02.07.05.09l45.93,26.7v.02l18.08,10.5c.07.04.15,0,.15-.09v-37.98s-.02-.07-.05-.09l-64.01-37.24c-.07-.04-.15,0-.15.09Z"/><path class="cls-14" d="m317.42,1026.56v61.66s.02.07.05.09l16.25,9.45h0s6.31,3.67,6.31,3.67c.07.04.15,0,.15-.09v-61.65s-.02-.07-.05-.09l-22.57-13.13c-.07-.04-.15,0-.15.09Z"/><line class="cls-14" x1="560.45" y1="992.78" x2="560.45" y2="919.58"/><line class="cls-14" x1="571.45" y1="919.58" x2="571.45" y2="992.78"/><ellipse class="cls-14" cx="565.95" cy="919.58" rx="5.5" ry="3.01"/><ellipse class="cls-14" cx="565.95" cy="992.72" rx="5.5" ry="3.01"/><line class="cls-4" x1="537.08" y1="896.3" x2="537.08" y2="824.45"/><path class="cls-4" d="m341.21,911.87l21.81-12.54s.05-.05.05-.09v-62.97c0-.08-.08-.13-.15-.09l-21.81,12.73s-.05.05-.05.09v62.78c0,.08.08.13.15.09Z"/><line class="cls-13" x1="379.16" y1="969.5" x2="379.16" y2="965.5"/><line class="cls-5" x1="379.16" y1="957.63" x2="379.16" y2="552"/><line class="cls-13" x1="379.16" y1="548.07" x2="379.16" y2="544.07"/><line class="cls-13" x1="306.45" y1="544.07" x2="306.45" y2="548.07"/><line class="cls-5" x1="306.45" y1="555.94" x2="306.45" y2="961.57"/><line class="cls-13" x1="306.45" y1="965.5" x2="306.45" y2="969.5"/><ellipse class="cls-7" cx="342.81" cy="544.07" rx="36.35" ry="21.11"/><ellipse class="cls-7" cx="342.81" cy="969.17" rx="36.35" ry="21.11"/><path class="cls-9" d="m396.21,742.5l-89.98-52.24c-.07-.04-.15,0-.15.09v71.71s.02.07.05.09l89.87,52.33.19.11,140.79,81.75c.07.04.15,0,.15-.09v-71.64s-.02-.07-.05-.09l-140.87-82.02Z"/><path class="cls-9" d="m271.15,815.11l-89.98-52.24c-.07-.04-.15,0-.15.09v71.71s.02.07.05.09l90.08,52.22v.07l55.51,32.24c.07.04.15,0,.15-.09v-71.64s-.02-.07-.05-.09l-55.61-32.37Z"/><path class="cls-9" d="m181.17,834.64l124.86-72.49s.05-.05.05-.09v-71.71c0-.08-.08-.13-.15-.09l-124.86,72.49s-.05.05-.05.09v71.71c0,.08.08.13.15.09Z"/><line class="cls-14" x1="351.91" y1="850.53" x2="351.91" y2="777.33"/><line class="cls-14" x1="362.9" y1="777.33" x2="362.9" y2="850.53"/><ellipse class="cls-14" cx="357.4" cy="777.33" rx="5.5" ry="3.01"/><ellipse class="cls-14" cx="357.4" cy="850.47" rx="5.5" ry="3.01"/><path class="cls-9" d="m37.17,436.05v71.71s.02.07.05.09l327.71,190.17c.07.04.15,0,.15-.09v-71.64s-.02-.07-.05-.09L37.32,435.96c-.07-.04-.15,0-.15.09Z"/><path class="cls-9" d="m237.18,320.43v71.71s.02.07.05.09l327.71,190.17c.07.04.15,0,.15-.09v-71.64s-.02-.07-.05-.09l-327.71-190.24c-.07-.04-.15,0-.15.09Z"/><path class="cls-9" d="m37.32,507.73l199.81-115.51s.05-.05.05-.09v-71.71c0-.08-.08-.13-.15-.09l-199.81,115.51s-.05.05-.05.09v71.71c0,.08.08.13.15.09Z"/><path class="cls-9" d="m365.14,626.2l199.81-115.51c.07-.04.15,0,.15.09v71.64s-.02.07-.05.09l-199.81,115.51c-.07.04-.15,0-.15-.09v-71.64s.02-.07.05-.09Z"/><path class="cls-14" d="m249.96,337.89v61.66s.02.07.05.09l16.25,9.45h0s6.31,3.67,6.31,3.67c.07.04.15,0,.15-.09v-61.65s-.02-.07-.05-.09l-22.57-13.13c-.07-.04-.15,0-.15.09Z"/><path class="cls-14" d="m47.91,452.54v61.66s.02.07.05.09l16.25,9.45h0s6.31,3.67,6.31,3.67c.07.04.15,0,.15-.09v-61.65s-.02-.07-.05-.09l-22.57-13.13c-.07-.04-.15,0-.15.09Z"/><path class="cls-14" d="m190.56,537.09v47.15s.02.07.05.09l103.38,60c.07.04.15,0,.15-.09v-47.12s-.02-.07-.05-.09l-103.38-60.02c-.07-.04-.15,0-.15.09Z"/><path class="cls-14" d="m392.78,421.02v47.15s.02.07.05.09l103.38,60c.07.04.15,0,.15-.09v-47.12s-.02-.07-.05-.09l-103.38-60.02c-.07-.04-.15,0-.15.09Z"/><path class="cls-12" d="m212.51,568.94l132.24,76.23s.07.02.1,0l131.55-75.94c.07-.04.07-.13,0-.17l-132.31-76.36s-.07-.02-.1,0l-131.48,76.07c-.07.04-.07.13,0,.17Z"/><path class="cls-11" d="m71.58,134.82v71.71s.02.07.05.09l226.72,131.16c.07.04.15,0,.15-.09v-71.64s-.02-.07-.05-.09L71.73,134.74c-.07-.04-.15,0-.15.09Z"/><path class="cls-9" d="m498.37,150.46l-199.81,115.51s-.05.05-.05.09v71.64c0,.08.08.13.15.09l201.76-116.63"/><path class="cls-14" d="m96.36,159.28v61.66s.02.07.05.09l16.25,9.45h0s6.31,3.67,6.31,3.67c.07.04.15,0,.15-.09v-61.65s-.02-.07-.05-.09l-22.57-13.13c-.07-.04-.15,0-.15.09Z"/><path class="cls-9" d="m271.59,91.49s26.95-15.52,26.91-15.5L71.73,207.08c-.07.04-.15,0-.15-.09v-71.64s.02-.07.05-.09l99.95-57.78"/><path class="cls-17" d="m26.41,522.83c-1.08.12-2.02.11-2.82-.05-.79-.15-1.46-.39-2-.7-.86-.5-1.46-1.04-1.79-1.63s-.42-1.19-.29-1.81c.13-.62.48-1.23,1.05-1.85.57-.62,1.31-1.19,2.24-1.72s1.96-.99,3.04-1.32,2.16-.54,3.24-.63c1.08-.08,2.13-.03,3.15.16,1.02.19,1.97.53,2.83,1.03.57.33,1.03.71,1.36,1.13.34.42.53.87.57,1.34.04.47-.08.95-.35,1.44-.28.49-.75.97-1.42,1.42l-2.34-1.35c.57-.5.83-.97.77-1.43-.06-.45-.38-.84-.96-1.18-.55-.32-1.14-.52-1.77-.6s-1.27-.07-1.93.03-1.3.27-1.93.51-1.24.53-1.8.85-1.01.65-1.41,1-.69.72-.86,1.1-.18.74-.05,1.11c.14.36.48.71,1.03,1.02.8.46,1.66.69,2.58.67.92-.02,1.87-.26,2.84-.74l-2.46-1.42,2.11-1.22,4.68,2.7-6.95,4.01-1.56-.9,1.21-.99Z"/><path class="cls-17" d="m34.85,521.95c.63-.33,1.26-.54,1.88-.64.62-.1,1.23-.11,1.83-.05.59.06,1.16.19,1.7.39.54.19,1.04.42,1.49.69.41.23.78.49,1.13.77.35.28.6.57.75.88.15.31.16.63.03.95-.13.33-.47.65-1.02.97l-4.84,2.8c-.42.24-.8.49-1.14.73-.34.25-.56.45-.65.62l-2.25-1.3c.1-.11.22-.21.34-.31.12-.1.26-.2.4-.3-.77.04-1.49-.03-2.14-.21-.65-.18-1.23-.41-1.73-.7-.38-.22-.69-.46-.9-.72s-.34-.52-.36-.8c-.02-.28.07-.55.28-.84s.55-.56,1.03-.84c.53-.3,1.04-.51,1.54-.62.5-.11.98-.15,1.44-.11.46.03.91.11,1.34.24.43.13.84.28,1.25.44.4.16.78.32,1.13.48s.68.29,1,.39.62.15.9.16c.28,0,.56-.07.82-.22s.46-.31.54-.45.11-.27.07-.4c-.04-.13-.13-.25-.27-.36s-.31-.23-.51-.35c-.43-.25-.87-.38-1.34-.4-.47-.02-.98.1-1.52.37l-2.21-1.28Zm3.22,4.04c-.19,0-.38-.02-.57-.07s-.39-.11-.59-.18c-.2-.07-.4-.15-.61-.24-.21-.09-.41-.17-.61-.25-.21-.08-.43-.15-.64-.2-.22-.06-.44-.09-.66-.1s-.45.01-.68.06c-.23.05-.47.14-.69.27-.24.14-.4.27-.48.4-.08.13-.1.25-.06.38.04.12.12.24.25.36.13.12.28.23.46.33.44.25.86.4,1.27.44.41.04.78.03,1.13-.04.35-.07.66-.17.92-.29.27-.12.47-.23.61-.31l.95-.55Z"/><path class="cls-17" d="m50.36,523.5l2.21,1.28-12.85,7.42-2.21-1.28,12.85-7.42Z"/><path class="cls-17" d="m47.33,531.93c-.79.49-1.2.94-1.25,1.35s.24.8.87,1.16c.45.26.96.41,1.54.44.58.04,1.05,0,1.41-.13l1.95,1.12c-1.42.46-2.69.64-3.83.55-1.14-.09-2.16-.4-3.08-.92-.63-.37-1.09-.77-1.35-1.2-.27-.43-.37-.88-.29-1.33.08-.45.32-.91.73-1.37.41-.46.97-.89,1.69-1.31s1.44-.72,2.24-.95c.8-.23,1.6-.37,2.4-.41.8-.04,1.58,0,2.34.15s1.44.4,2.05.75c.69.4,1.13.83,1.33,1.3.2.47.21.95.02,1.44-.19.49-.54.96-1.06,1.43-.51.46-1.15.89-1.91,1.28l-5.81-3.36Zm5.22,1.14c.54-.43.85-.82.92-1.17.07-.35-.16-.68-.7-.99-.35-.2-.72-.33-1.09-.39-.37-.06-.73-.06-1.07-.03s-.66.1-.94.2c-.29.1-.52.2-.71.29l3.6,2.08Z"/><path class="cls-17" d="m59.72,533l2.11,1.22-1.73,1,.03.02c.39-.11.8-.18,1.22-.22s.84-.04,1.24-.01.78.1,1.15.19c.36.1.68.22.95.38.17.1.3.21.39.33l-2.38,1.37c-.08-.07-.18-.16-.31-.25-.13-.09-.26-.18-.39-.26-.41-.23-.83-.39-1.26-.46-.44-.07-.88-.08-1.32-.02-.44.06-.88.17-1.32.34-.44.17-.86.37-1.27.61l-4.19,2.42-2.21-1.28,9.31-5.37Z"/><path class="cls-17" d="m69.51,536.98l-2.21-1.28,2.11-1.22,2.21,1.28-2.11,1.22Zm-3.65-.45l2.21,1.28-9.31,5.37-2.21-1.28,9.31-5.37Z"/><path class="cls-17" d="m66.36,542.92c-.79.49-1.2.94-1.25,1.35s.24.8.87,1.16c.45.26.96.41,1.54.44.58.04,1.05,0,1.41-.13l1.95,1.12c-1.42.46-2.69.64-3.83.55-1.14-.09-2.16-.4-3.08-.92-.63-.37-1.09-.77-1.35-1.2-.27-.43-.37-.88-.29-1.33.08-.45.32-.91.73-1.37.41-.46.97-.89,1.69-1.31s1.44-.72,2.24-.95c.8-.23,1.6-.37,2.4-.41.8-.04,1.58,0,2.34.15s1.44.4,2.05.75c.69.4,1.13.83,1.33,1.3.2.47.21.95.02,1.44-.19.49-.54.96-1.06,1.43-.51.46-1.15.89-1.91,1.28l-5.81-3.36Zm5.22,1.14c.54-.43.85-.82.92-1.17.07-.35-.16-.68-.7-.99-.35-.2-.72-.33-1.09-.39-.37-.06-.73-.06-1.07-.03s-.66.1-.94.2c-.29.1-.52.2-.71.29l3.6,2.08Z"/><path class="cls-17" d="m81.28,547.23c.7-.43,1.44-.77,2.23-1.03.78-.26,1.57-.43,2.37-.5.79-.07,1.57-.04,2.34.1.76.14,1.47.4,2.12.78.5.29.88.61,1.16.98.27.36.41.74.42,1.14,0,.39-.13.79-.42,1.19-.29.4-.74.78-1.35,1.13-.47.27-.94.48-1.43.64s-.96.27-1.44.34-.96.11-1.44.12c-.49.01-.97,0-1.46-.03-.49-.03-.98-.07-1.47-.11s-1-.08-1.5-.11c-.5-.03-1.01-.04-1.52-.04-.51,0-1.03.04-1.55.11l5.16,2.98-2.2,1.27-8.01-4.63c.73-.42,1.46-.74,2.18-.94.72-.21,1.45-.34,2.19-.41.74-.07,1.5-.08,2.28-.05.78.03,1.59.08,2.43.14.43.03.88.06,1.35.1.47.04.93.06,1.4.05s.92-.06,1.37-.14.87-.24,1.25-.46c.6-.35.92-.71.96-1.09.04-.38-.18-.7-.65-.98-.33-.19-.7-.3-1.1-.32-.4-.02-.8,0-1.21.09-.41.08-.82.2-1.22.37-.4.16-.77.34-1.1.54l-2.12-1.22Z"/><path class="cls-17" d="m92.78,555.89l4.69,2.71-2.2,1.27-4.69-2.71,2.2-1.27Z"/><path class="cls-17" d="m114.91,563.49l-4.51-2.6-3.3,1.4v.04c.64-.03,1.22.02,1.71.13.49.11.96.29,1.39.54.54.31.9.65,1.09,1.03.19.37.23.75.13,1.14-.1.39-.33.77-.7,1.16-.37.39-.85.75-1.44,1.09-.65.37-1.36.66-2.14.86-.78.2-1.55.31-2.33.33-.78.02-1.52-.04-2.24-.19-.72-.15-1.34-.39-1.88-.71-.53-.31-.95-.65-1.27-1.02s-.49-.77-.53-1.18c-.04-.41.08-.82.35-1.24.27-.42.74-.82,1.39-1.21l2.21,1.28c-.51.36-.78.73-.8,1.12-.02.39.21.73.7,1.01.29.17.62.28.98.34.36.06.74.07,1.13.03.39-.04.78-.11,1.16-.23.38-.12.73-.27,1.04-.45s.59-.39.79-.6c.2-.21.33-.43.38-.65.05-.22.02-.43-.1-.64-.11-.2-.32-.39-.61-.56-.39-.23-.8-.37-1.21-.42-.41-.05-.9-.04-1.47.04l-2-1.15,8.04-3.4,6.1,3.52-2.11,1.22Z"/><path class="cls-17" d="m109,568.99l2.45,1.41-2.77,1.6-2.45-1.41,2.77-1.6Z"/><path class="cls-17" d="m123.55,565.76l2.45,1.41-5.33,3.08,9.68-.56,3.06,1.76-9.42.42-3.01,7.24-3.07-1.77,2.43-5.27-3.04.14-4.14,2.39-2.45-1.41,12.85-7.42Z"/><path class="cls-17" d="m127.56,575.57c1.22-.71,2.36-1.24,3.41-1.6,1.05-.36,2-.58,2.87-.66s1.65-.04,2.35.11c.7.15,1.32.39,1.86.7s.95.67,1.22,1.08c.27.41.34.86.21,1.37s-.51,1.06-1.13,1.66c-.62.61-1.54,1.26-2.77,1.97s-2.42,1.27-3.47,1.63-2.02.59-2.91.67-1.68.05-2.38-.11c-.7-.16-1.33-.39-1.87-.7s-.94-.67-1.21-1.07c-.27-.4-.32-.86-.17-1.37s.54-1.07,1.17-1.67,1.57-1.28,2.83-2Zm2.21,1.28c-.36.21-.78.47-1.27.77-.49.31-.92.63-1.28.96-.37.34-.6.67-.69,1-.1.33.08.63.52.89s.96.36,1.55.31c.58-.05,1.17-.18,1.75-.39.58-.21,1.14-.46,1.67-.74.53-.28.98-.53,1.34-.74.22-.13.48-.28.78-.46.3-.18.59-.37.88-.58s.56-.42.81-.65c.25-.22.43-.45.55-.67s.15-.44.1-.65c-.05-.21-.23-.4-.53-.58s-.62-.27-.98-.3-.74-.01-1.12.06c-.38.07-.77.18-1.16.32s-.76.3-1.12.47-.69.34-1,.51c-.31.17-.57.32-.79.45Z"/><path class="cls-17" d="m135.41,583.7c-.35.28-.55.59-.6.92-.05.33.11.61.5.83.41.23.87.35,1.4.34.53,0,1.07-.08,1.61-.21.55-.14,1.07-.31,1.59-.53.51-.22.95-.42,1.32-.61v-.04c-.8.12-1.51.12-2.13.01s-1.2-.32-1.73-.62c-.47-.27-.81-.6-1.02-.99-.21-.39-.28-.79-.19-1.2.09-.39.32-.77.68-1.13.36-.36.79-.69,1.29-.98.65-.37,1.34-.67,2.08-.89.74-.22,1.49-.35,2.24-.39s1.48,0,2.19.13c.71.13,1.35.36,1.92.69.82.47,1.31.98,1.48,1.51.16.53.09,1.07-.2,1.61s-.77,1.08-1.43,1.6c-.66.52-1.38,1.01-2.17,1.47s-1.62.85-2.56,1.21c-.94.36-1.9.63-2.87.79-.97.17-1.93.21-2.86.12-.94-.08-1.79-.35-2.57-.8-.95-.55-1.44-1.18-1.48-1.9-.04-.72.44-1.44,1.43-2.16l2.11,1.22Zm4.42-.71c.29.17.61.28.96.34s.7.06,1.07.02c.36-.04.72-.12,1.07-.24s.69-.27,1-.45c.29-.17.53-.35.74-.56s.34-.42.41-.63c.07-.22.06-.42-.02-.63s-.27-.38-.55-.55-.57-.25-.91-.3-.68-.04-1.04,0c-.36.04-.72.12-1.07.24-.35.12-.67.26-.95.43s-.56.36-.77.56c-.21.2-.37.41-.45.61-.09.21-.09.41-.02.61.07.2.25.39.53.55Z"/><path class="cls-17" d="m244.54,1066.74c-1.08.12-2.02.11-2.82-.05-.79-.15-1.46-.39-2-.7-.86-.5-1.46-1.04-1.79-1.63s-.42-1.19-.29-1.81c.13-.62.48-1.23,1.05-1.85.57-.62,1.31-1.19,2.24-1.72s1.96-.99,3.04-1.32,2.16-.54,3.24-.63c1.08-.08,2.13-.03,3.15.16,1.02.19,1.97.53,2.83,1.03.57.33,1.03.71,1.36,1.13.34.42.53.87.57,1.34.04.47-.08.95-.35,1.44-.28.49-.75.97-1.42,1.42l-2.34-1.35c.57-.5.83-.97.77-1.43-.06-.45-.38-.84-.96-1.18-.55-.32-1.14-.52-1.77-.6s-1.27-.07-1.93.03-1.3.27-1.93.51-1.24.53-1.8.85-1.01.65-1.41,1-.69.72-.86,1.1-.18.74-.05,1.11c.14.36.48.71,1.03,1.02.8.46,1.66.69,2.58.67.92-.02,1.87-.26,2.84-.74l-2.46-1.42,2.11-1.22,4.68,2.7-6.95,4.01-1.56-.9,1.21-.99Z"/><path class="cls-17" d="m252.98,1065.86c.63-.33,1.26-.54,1.88-.64.62-.1,1.23-.11,1.83-.05.59.06,1.16.19,1.7.39.54.19,1.04.42,1.49.69.41.23.78.49,1.13.77.35.28.6.57.75.88.15.31.16.63.03.95-.13.33-.47.65-1.02.97l-4.84,2.8c-.42.24-.8.49-1.14.73-.34.25-.56.45-.65.62l-2.25-1.3c.1-.11.22-.21.34-.31.12-.1.26-.2.4-.3-.77.04-1.49-.03-2.14-.21-.65-.18-1.23-.41-1.73-.7-.38-.22-.69-.46-.9-.72s-.34-.52-.36-.8c-.02-.28.07-.55.28-.84s.55-.56,1.03-.84c.53-.3,1.04-.51,1.54-.62.5-.11.98-.15,1.44-.11.46.03.91.11,1.34.24.43.13.84.28,1.25.44.4.16.78.32,1.13.48s.68.29,1,.39.62.15.9.16c.28,0,.56-.07.82-.22s.46-.31.54-.45.11-.27.07-.4c-.04-.13-.13-.25-.27-.36s-.31-.23-.51-.35c-.43-.25-.87-.38-1.34-.4-.47-.02-.98.1-1.52.37l-2.21-1.28Zm3.22,4.04c-.19,0-.38-.02-.57-.07s-.39-.11-.59-.18c-.2-.07-.4-.15-.61-.24-.21-.09-.41-.17-.61-.25-.21-.08-.43-.15-.64-.2-.22-.06-.44-.09-.66-.1s-.45.01-.68.06c-.23.05-.47.14-.69.27-.24.14-.4.27-.48.4-.08.13-.1.25-.06.38.04.12.12.24.25.36.13.12.28.23.46.33.44.25.86.4,1.27.44.41.04.78.03,1.13-.04.35-.07.66-.17.92-.29.27-.12.47-.23.61-.31l.95-.55Z"/><path class="cls-17" d="m268.49,1067.41l2.21,1.28-12.85,7.42-2.21-1.28,12.85-7.42Z"/><path class="cls-17" d="m265.46,1075.85c-.79.49-1.2.94-1.25,1.35s.24.8.87,1.16c.45.26.96.41,1.54.44.58.04,1.05,0,1.41-.13l1.95,1.12c-1.42.46-2.69.64-3.83.55-1.14-.09-2.16-.4-3.08-.92-.63-.37-1.09-.77-1.35-1.2-.27-.43-.37-.88-.29-1.33.08-.45.32-.91.73-1.37.41-.46.97-.89,1.69-1.31s1.44-.72,2.24-.95c.8-.23,1.6-.37,2.4-.41.8-.04,1.58,0,2.34.15s1.44.4,2.05.75c.69.4,1.13.83,1.33,1.3.2.47.21.95.02,1.44-.19.49-.54.96-1.06,1.43-.51.46-1.15.89-1.91,1.28l-5.81-3.36Zm5.22,1.14c.54-.43.85-.82.92-1.17.07-.35-.16-.68-.7-.99-.35-.2-.72-.33-1.09-.39-.37-.06-.73-.06-1.07-.03s-.66.1-.94.2c-.29.1-.52.2-.71.29l3.6,2.08Z"/><path class="cls-17" d="m277.85,1076.91l2.11,1.22-1.73,1,.03.02c.39-.11.8-.18,1.22-.22s.84-.04,1.24-.01.78.1,1.15.19c.36.1.68.22.95.38.17.1.3.21.39.33l-2.38,1.37c-.08-.07-.18-.16-.31-.25-.13-.09-.26-.18-.39-.26-.41-.23-.83-.39-1.26-.46-.44-.07-.88-.08-1.32-.02-.44.06-.88.17-1.32.34-.44.17-.86.37-1.27.61l-4.19,2.42-2.21-1.28,9.31-5.37Z"/><path class="cls-17" d="m287.63,1080.9l-2.21-1.28,2.11-1.22,2.21,1.28-2.11,1.22Zm-3.65-.45l2.21,1.28-9.31,5.37-2.21-1.28,9.31-5.37Z"/><path class="cls-17" d="m284.49,1086.83c-.79.49-1.2.94-1.25,1.35s.24.8.87,1.16c.45.26.96.41,1.54.44.58.04,1.05,0,1.41-.13l1.95,1.12c-1.42.46-2.69.64-3.83.55-1.14-.09-2.16-.4-3.08-.92-.63-.37-1.09-.77-1.35-1.2-.27-.43-.37-.88-.29-1.33.08-.45.32-.91.73-1.37.41-.46.97-.89,1.69-1.31s1.44-.72,2.24-.95c.8-.23,1.6-.37,2.4-.41.8-.04,1.58,0,2.34.15s1.44.4,2.05.75c.69.4,1.13.83,1.33,1.3.2.47.21.95.02,1.44-.19.49-.54.96-1.06,1.43-.51.46-1.15.89-1.91,1.28l-5.81-3.36Zm5.22,1.14c.54-.43.85-.82.92-1.17.07-.35-.16-.68-.7-.99-.35-.2-.72-.33-1.09-.39-.37-.06-.73-.06-1.07-.03s-.66.1-.94.2c-.29.1-.52.2-.71.29l3.6,2.08Z"/><path class="cls-17" d="m297.18,1098.82l-2.21-1.28,8.17-4.72-2.74-1.58,1.93-1.11c.37.23.78.42,1.21.59s.9.27,1.39.32c.49.05.99.04,1.51-.03.52-.08,1.05-.23,1.59-.48l1.76,1.02-12.6,7.27Z"/><path class="cls-17" d="m310.91,1099.8l4.69,2.71-2.2,1.27-4.69-2.71,2.2-1.27Z"/><path class="cls-17" d="m322.53,1110.09l-4.61-2.66,2.34-1.35,12.08-1.5,1.98,1.14-7.58,4.37,1.45.84-2.11,1.22-1.45-.84-2.92,1.68-2.1-1.21,2.92-1.68Zm6.48-3.74l-.05-.03-7.2.9,2.87,1.66,4.37-2.53Z"/><path class="cls-17" d="m327.13,1112.91l2.45,1.41-2.77,1.6-2.45-1.41,2.77-1.6Z"/><path class="cls-17" d="m341.68,1109.67l2.45,1.41-5.33,3.08,9.68-.56,3.06,1.76-9.42.42-3.01,7.24-3.07-1.77,2.43-5.27-3.04.14-4.14,2.39-2.45-1.41,12.85-7.42Z"/><path class="cls-17" d="m345.12,1126.49l-2.21-1.28,8.17-4.72-2.74-1.58,1.93-1.11c.37.23.78.42,1.21.59s.9.27,1.39.32c.49.05.99.04,1.51-.03.52-.08,1.05-.23,1.59-.48l1.76,1.02-12.6,7.27Z"/><path class="cls-17" d="m358.73,1125.69c.21.15.47.3.76.44.29.14.61.25.96.32.35.07.7.08,1.07.05.37-.04.73-.16,1.09-.37.54-.31.8-.64.77-.99-.02-.35-.24-.64-.64-.87-.56-.32-1.2-.45-1.91-.36-.71.08-1.39.31-2.02.69l-2.1-1.21c.67-.36,1.36-.65,2.08-.85.72-.2,1.43-.32,2.14-.35.71-.03,1.4.02,2.07.16s1.28.38,1.84.7c.44.25.8.55,1.08.89s.45.7.5,1.07c.05.37-.04.75-.25,1.12-.21.38-.6.73-1.17,1.05-.6.35-1.26.58-1.99.71-.73.13-1.43.09-2.11-.11l-.04.02c.45.44.58.91.4,1.41-.18.5-.62.95-1.33,1.36-.66.38-1.36.66-2.1.82-.74.17-1.47.25-2.19.23-.72-.01-1.42-.11-2.09-.28-.67-.17-1.28-.41-1.81-.72-.61-.35-1.07-.73-1.37-1.14-.3-.41-.43-.83-.39-1.26.04-.43.25-.87.63-1.31.38-.44.93-.86,1.66-1.27l2.1,1.21c-.34.21-.62.42-.83.64-.22.22-.36.44-.42.66-.07.22-.05.43.05.64.1.21.31.41.64.6.5.29,1.1.43,1.8.42.7,0,1.35-.19,1.95-.53.48-.28.77-.53.86-.77.09-.24.07-.46-.07-.67-.14-.21-.34-.41-.62-.59-.28-.18-.55-.35-.82-.51l1.8-1.04Z"/><path class="cls-17" d="m151.13,826.21l5.02,2.9c.7.4,1.17.81,1.43,1.23s.34.83.27,1.22c-.08.4-.29.78-.65,1.15s-.79.7-1.31,1-1.11.56-1.74.76-1.29.33-1.99.37c-.69.04-1.4,0-2.12-.15s-1.43-.42-2.13-.82l-2.57-1.48-4.61,2.66-2.45-1.41,12.85-7.42Zm-3.6,4.9l1.9,1.1c.28.16.58.3.88.43s.63.2.97.23c.33.03.69.01,1.06-.06s.76-.23,1.17-.47.68-.46.81-.67.17-.42.11-.61c-.06-.19-.19-.38-.41-.56s-.46-.35-.74-.51l-1.9-1.1-3.85,2.22Z"/><path class="cls-17" d="m157.75,834.12l2.11,1.22-1.73,1,.03.02c.39-.11.8-.18,1.22-.22s.84-.04,1.24-.01.78.1,1.15.19c.36.1.68.22.95.38.17.1.3.21.39.33l-2.38,1.37c-.08-.07-.18-.16-.31-.25-.13-.09-.26-.18-.39-.26-.41-.23-.83-.39-1.26-.46-.44-.07-.88-.08-1.32-.02-.44.06-.88.17-1.32.34-.44.17-.86.37-1.27.61l-4.19,2.42-2.21-1.28,9.31-5.37Z"/><path class="cls-17" d="m158.62,840.01c.74-.43,1.52-.76,2.32-1,.8-.24,1.6-.37,2.39-.41s1.56.03,2.3.18,1.43.42,2.07.79,1.09.76,1.37,1.2c.28.43.39.88.33,1.33s-.3.92-.71,1.38c-.41.46-.98.91-1.73,1.34s-1.51.76-2.31.99c-.8.23-1.59.37-2.38.4s-1.56-.03-2.31-.19c-.75-.16-1.44-.43-2.07-.79s-1.09-.76-1.36-1.19c-.27-.43-.38-.87-.32-1.33s.29-.91.7-1.37c.4-.46.97-.91,1.72-1.34Zm2.21,1.28c-.37.21-.7.44-1,.68-.29.24-.5.49-.63.74-.13.25-.16.5-.07.74s.31.47.68.69.77.35,1.19.4.85.04,1.28-.04c.43-.08.86-.2,1.27-.37.42-.17.81-.36,1.18-.57s.71-.44,1.01-.69c.3-.24.51-.49.63-.74.12-.25.15-.49.07-.74s-.31-.48-.68-.69-.77-.35-1.2-.39-.85-.03-1.28.04c-.43.07-.85.19-1.27.37-.42.17-.82.37-1.19.58Z"/><path class="cls-17" d="m161.52,848.31c.08.1.21.21.41.32.23.13.48.22.75.26.27.04.58-.04.93-.24l9.65-5.57,2.21,1.28-9.77,5.64c-.48.28-.94.49-1.37.64-.44.15-.88.23-1.33.24s-.91-.05-1.39-.2c-.48-.14-1-.38-1.56-.7-.12-.07-.23-.14-.34-.22-.11-.08-.21-.16-.3-.24l2.11-1.22Zm15.4-4.79l-2.21-1.28,2.11-1.22,2.21,1.28-2.11,1.22Z"/><path class="cls-17" d="m173.94,849.56c-.79.49-1.2.94-1.25,1.35s.24.8.87,1.16c.45.26.96.41,1.54.44.58.04,1.05,0,1.41-.13l1.95,1.12c-1.42.46-2.69.64-3.83.55-1.14-.09-2.16-.4-3.08-.92-.63-.37-1.09-.77-1.35-1.2-.27-.43-.37-.88-.29-1.33.08-.45.32-.91.73-1.37.41-.46.97-.89,1.69-1.31s1.44-.72,2.24-.95c.8-.23,1.6-.37,2.4-.41.8-.04,1.58,0,2.34.15s1.44.4,2.05.75c.69.4,1.13.83,1.33,1.3.2.47.21.95.02,1.44-.19.49-.54.96-1.06,1.43-.51.46-1.15.89-1.91,1.28l-5.81-3.36Zm5.22,1.14c.54-.43.85-.82.92-1.17.07-.35-.16-.68-.7-.99-.35-.2-.72-.33-1.09-.39-.37-.06-.73-.06-1.07-.03s-.66.1-.94.2c-.29.1-.52.2-.71.29l3.6,2.08Z"/><path class="cls-17" d="m190.09,848.7l2.21,1.28-6.89,3.98,6.14-.32,2.62,1.51-6.46.22-2.5,5.35-2.68-1.55,1.94-3.68-1.81.06-3.2,1.85-2.21-1.28,12.85-7.42Z"/><path class="cls-17" d="m198.09,857.42l1.62.94-1.71.99-1.62-.94-4.61,2.66c-.43.25-.66.45-.68.61-.02.16.16.34.53.56.25.14.5.26.76.35l-2,1.15c-.22-.09-.46-.19-.7-.32-.24-.13-.47-.25-.69-.38-.34-.2-.64-.4-.89-.61-.25-.21-.41-.43-.49-.65-.07-.23-.03-.46.12-.71.15-.24.46-.5.93-.77l5.49-3.17-1.34-.77,1.71-.99,1.34.77,2.79-1.61,2.21,1.28-2.79,1.61Z"/><path class="cls-17" d="m200.77,858.96l2.11,1.22-1.73,1,.03.02c.39-.11.8-.18,1.22-.22s.84-.04,1.24-.01.78.1,1.15.19c.36.1.68.22.95.38.17.1.3.21.39.33l-2.38,1.37c-.08-.07-.18-.16-.31-.25-.13-.09-.26-.18-.39-.26-.41-.23-.83-.39-1.26-.46-.44-.07-.88-.08-1.32-.02-.44.06-.88.17-1.32.34-.44.17-.86.37-1.27.61l-4.19,2.42-2.21-1.28,9.31-5.37Z"/><path class="cls-17" d="m203.88,864.06c.63-.33,1.26-.54,1.88-.64.62-.1,1.23-.11,1.83-.05.59.06,1.16.19,1.7.39.54.19,1.04.42,1.49.69.41.23.78.49,1.13.77.35.28.6.57.75.88.15.31.16.63.03.95-.13.33-.47.65-1.02.97l-4.84,2.8c-.42.24-.8.49-1.14.73-.34.25-.56.45-.65.62l-2.25-1.3c.1-.11.22-.21.34-.31.12-.1.26-.2.4-.3-.77.04-1.49-.03-2.14-.21-.65-.18-1.23-.41-1.73-.7-.38-.22-.69-.46-.9-.72s-.34-.52-.36-.8c-.02-.28.07-.55.28-.84s.55-.56,1.03-.84c.53-.3,1.04-.51,1.54-.62.5-.11.98-.15,1.44-.11.46.03.91.11,1.34.24.43.13.84.28,1.25.44.4.16.78.32,1.13.48s.68.29,1,.39.62.15.9.16c.28,0,.56-.07.82-.22s.46-.31.54-.45.11-.27.07-.4c-.04-.13-.13-.25-.27-.36s-.31-.23-.51-.35c-.43-.25-.87-.38-1.34-.4-.47-.02-.98.1-1.52.37l-2.21-1.28Zm3.22,4.04c-.19,0-.38-.02-.57-.07s-.39-.11-.59-.18c-.2-.07-.4-.15-.61-.24-.21-.09-.41-.17-.61-.25-.21-.08-.43-.15-.64-.2-.22-.06-.44-.09-.66-.1s-.45.01-.68.06c-.23.05-.47.14-.69.27-.24.14-.4.27-.48.4-.08.13-.1.25-.06.38.04.12.12.24.25.36.13.12.28.23.46.33.44.25.86.4,1.27.44.41.04.78.03,1.13-.04.35-.07.66-.17.92-.29.27-.12.47-.23.61-.31l.95-.55Z"/><path class="cls-17" d="m214.04,877.37l-2.1-1.21,1.3-.75-.05-.03c-.81.14-1.56.16-2.26.05s-1.28-.3-1.75-.57c-.59-.34-.99-.68-1.18-1-.19-.33-.23-.65-.12-.96s.36-.64.75-.96c.38-.32.87-.65,1.44-.99l5.72-3.3,2.21,1.28-5.26,3.03c-.77.44-1.23.84-1.4,1.18-.17.34.01.66.53.96.6.35,1.25.48,1.93.4.68-.08,1.5-.4,2.45-.95l4.88-2.82,2.21,1.28-9.31,5.37Z"/><path class="cls-17" d="m225.09,873l2.09,1.21-1.26.73.03.02c.77-.11,1.49-.12,2.17-.04.67.08,1.28.28,1.81.59s.86.63,1.04,1.01c.19.38.11.79-.24,1.24.65-.1,1.33-.12,2.05-.06.72.06,1.36.25,1.93.57.43.25.76.51,1.01.79.24.28.36.57.36.87s-.15.62-.43.95-.72.67-1.32,1.01l-6.23,3.6-2.21-1.28,5.27-3.05c.31-.18.6-.36.85-.53.25-.17.44-.34.55-.51.11-.17.14-.34.07-.52-.06-.17-.25-.35-.56-.53s-.63-.29-.96-.32c-.33-.03-.66-.01-.99.05s-.66.17-.97.31-.62.3-.91.46l-5.18,2.99-2.21-1.28,5.22-3.01c.26-.15.53-.31.8-.48.26-.17.47-.34.62-.51.15-.18.2-.36.16-.54s-.24-.38-.6-.58c-.11-.07-.28-.13-.5-.2-.22-.06-.49-.1-.8-.11-.31,0-.67.04-1.06.14s-.82.28-1.28.54l-5.4,3.12-2.21-1.28,9.31-5.37Z"/><path class="cls-17" d="m240.18,885.52l4.69,2.71-2.2,1.27-4.69-2.71,2.2-1.27Z"/><path class="cls-17" d="m251.79,895.8l-4.61-2.66,2.34-1.35,12.08-1.5,1.98,1.14-7.58,4.37,1.45.84-2.11,1.22-1.45-.84-2.92,1.68-2.1-1.21,2.92-1.68Zm6.48-3.74l-.05-.03-7.2.9,2.87,1.66,4.37-2.53Z"/><path class="cls-17" d="m256.39,898.62l2.45,1.41-2.77,1.6-2.45-1.41,2.77-1.6Z"/><path class="cls-17" d="m270.94,895.38l2.45,1.41-5.33,3.08,9.68-.56,3.06,1.76-9.42.42-3.01,7.24-3.07-1.77,2.43-5.27-3.04.14-4.14,2.39-2.45-1.41,12.85-7.42Z"/><path class="cls-17" d="m276.6,904.53c.7-.43,1.44-.77,2.23-1.03.78-.26,1.57-.43,2.37-.5.79-.07,1.57-.04,2.34.1.76.14,1.47.4,2.12.78.5.29.88.61,1.16.98.27.36.41.74.42,1.14,0,.39-.13.79-.42,1.19-.29.4-.74.78-1.35,1.13-.47.27-.94.48-1.43.64s-.96.27-1.44.34-.96.11-1.44.12c-.49.01-.97,0-1.46-.03-.49-.03-.98-.07-1.47-.11s-1-.08-1.5-.11c-.5-.03-1.01-.04-1.52-.04-.51,0-1.03.04-1.55.11l5.16,2.98-2.2,1.27-8.01-4.63c.73-.42,1.46-.74,2.18-.94.72-.21,1.45-.34,2.19-.41.74-.07,1.5-.08,2.28-.05.78.03,1.59.08,2.43.14.43.03.88.06,1.35.1.47.04.93.06,1.4.05s.92-.06,1.37-.14.87-.24,1.25-.46c.6-.35.92-.71.96-1.09.04-.38-.18-.7-.65-.98-.33-.19-.7-.3-1.1-.32-.4-.02-.8,0-1.21.09-.41.08-.82.2-1.22.37-.4.16-.77.34-1.1.54l-2.12-1.22Z"/><path class="cls-17" d="m285.27,909.54c.7-.43,1.44-.77,2.23-1.03.78-.26,1.57-.43,2.37-.5.79-.07,1.57-.04,2.34.1.76.14,1.47.4,2.12.78.5.29.88.61,1.16.98.27.36.41.74.42,1.14,0,.39-.13.79-.42,1.19-.29.4-.74.78-1.35,1.13-.47.27-.94.48-1.43.64s-.96.27-1.44.34-.96.11-1.44.12c-.49.01-.97,0-1.46-.03-.49-.03-.98-.07-1.47-.11s-1-.08-1.5-.11c-.5-.03-1.01-.04-1.52-.04-.51,0-1.03.04-1.55.11l5.16,2.98-2.2,1.27-8.01-4.63c.73-.42,1.46-.74,2.18-.94.72-.21,1.45-.34,2.19-.41.74-.07,1.5-.08,2.28-.05.78.03,1.59.08,2.43.14.43.03.88.06,1.35.1.47.04.93.06,1.4.05s.92-.06,1.37-.14.87-.24,1.25-.46c.6-.35.92-.71.96-1.09.04-.38-.18-.7-.65-.98-.33-.19-.7-.3-1.1-.32-.4-.02-.8,0-1.21.09-.41.08-.82.2-1.22.37-.4.16-.77.34-1.1.54l-2.12-1.22Z"/><path class="cls-17" d="m292.44,915.69l4.69,2.71-2.2,1.27-4.69-2.71,2.2-1.27Z"/><path class="cls-17" d="m298.06,925.88l-2.21-1.28,8.17-4.72-2.74-1.58,1.93-1.11c.37.23.78.42,1.21.59s.9.27,1.39.32c.49.05.99.04,1.51-.03.52-.08,1.05-.23,1.59-.48l1.76,1.02-12.6,7.27Z"/><path class="cls-17" d="m64.2,210.42l2.45,1.41-10.48,6.05,5.42,3.13-2.38,1.37-7.87-4.54,12.85-7.42Z"/><path class="cls-17" d="m73.38,218.15l-2.21-1.28,2.11-1.22,2.21,1.28-2.11,1.22Zm-3.65-.45l2.21,1.28-9.31,5.37-2.21-1.28,9.31-5.37Z"/><path class="cls-17" d="m75.9,225.05c.92-.7.91-1.32-.03-1.87-.35-.2-.74-.32-1.17-.35-.42-.03-.86,0-1.3.08s-.88.21-1.3.38c-.42.17-.8.36-1.14.55s-.65.41-.93.65c-.29.24-.5.48-.64.72s-.18.49-.12.73c.06.24.26.46.6.66.52.3,1.1.44,1.73.41.63-.03,1.27-.19,1.92-.48l2.14,1.23c-1.38.63-2.74.94-4.08.92-1.34-.02-2.54-.34-3.61-.95-.61-.35-1.05-.74-1.32-1.17-.26-.42-.36-.86-.29-1.31.07-.45.3-.9.69-1.35.38-.45.92-.88,1.62-1.28s1.48-.75,2.28-1c.8-.25,1.6-.41,2.4-.46s1.59,0,2.35.14,1.47.41,2.12.79c.48.28.87.58,1.16.92.3.34.47.69.52,1.06.05.37-.04.74-.26,1.13-.22.39-.61.76-1.17,1.11l-2.17-1.25Z"/><path class="cls-17" d="m86.18,223.11l2.21,1.28-4.84,2.8.05.03c.81-.14,1.56-.16,2.25-.05s1.24.28,1.66.52c.59.34.99.68,1.18,1,.19.33.23.65.12.96s-.36.64-.75.96-.87.65-1.44.99l-5.72,3.3-2.21-1.28,5.26-3.03c.77-.44,1.23-.84,1.4-1.18.16-.34-.01-.66-.53-.96-.6-.35-1.25-.48-1.93-.4-.68.08-1.5.4-2.45.95l-4.88,2.82-2.21-1.28,12.85-7.42Z"/><path class="cls-17" d="m94.68,232.12l1.62.94-1.71.99-1.62-.94-4.61,2.66c-.43.25-.66.45-.68.61-.02.16.16.34.53.56.25.14.5.26.76.35l-2,1.15c-.22-.09-.46-.19-.7-.32-.24-.13-.47-.25-.69-.38-.34-.2-.64-.4-.89-.61-.25-.21-.41-.43-.49-.65-.07-.23-.03-.46.12-.71.15-.24.46-.5.93-.77l5.49-3.17-1.34-.77,1.71-.99,1.34.77,2.79-1.61,2.21,1.28-2.79,1.61Z"/><path class="cls-17" d="m100.91,231.62l2.21,1.28-4.84,2.8.05.03c.81-.14,1.56-.16,2.25-.05s1.24.28,1.66.52c.59.34.99.68,1.18,1,.19.33.23.65.12.96s-.36.64-.75.96-.87.65-1.44.99l-5.72,3.3-2.21-1.28,5.26-3.03c.77-.44,1.23-.84,1.4-1.18.16-.34-.01-.66-.53-.96-.6-.35-1.25-.48-1.93-.4-.68.08-1.5.4-2.45.95l-4.88,2.82-2.21-1.28,12.85-7.42Z"/><path class="cls-17" d="m101.7,241.55c.74-.43,1.52-.76,2.32-1,.8-.24,1.6-.37,2.39-.41s1.56.03,2.3.18,1.43.42,2.07.79,1.09.76,1.37,1.2c.28.43.39.88.33,1.33s-.3.92-.71,1.38c-.41.46-.98.91-1.73,1.34s-1.51.76-2.31.99c-.8.23-1.59.37-2.38.4s-1.56-.03-2.31-.19c-.75-.16-1.44-.43-2.07-.79s-1.09-.76-1.36-1.19c-.27-.43-.38-.87-.32-1.33s.29-.91.7-1.37c.4-.46.97-.91,1.72-1.34Zm2.21,1.28c-.37.21-.7.44-1,.68-.29.24-.5.49-.63.74-.13.25-.16.5-.07.74s.31.47.68.69.77.35,1.19.4.85.04,1.28-.04c.43-.08.86-.2,1.27-.37.42-.17.81-.36,1.18-.57s.71-.44,1.01-.69c.3-.24.51-.49.63-.74.12-.25.15-.49.07-.74s-.31-.48-.68-.69-.77-.35-1.2-.39-.85-.03-1.28.04c-.43.07-.85.19-1.27.37-.42.17-.82.37-1.19.58Z"/><path class="cls-17" d="m114.91,245.77l-1.33-.77,1.71-.99,1.33.77.72-.42c.41-.24.84-.42,1.3-.56.46-.14.93-.21,1.41-.23s.96.04,1.43.15c.47.11.93.3,1.39.56.2.11.39.23.57.36.18.12.36.24.53.36l-1.93,1.11c-.23-.18-.49-.34-.76-.5-.3-.17-.6-.25-.89-.23-.29.02-.63.14-1.01.36l-.55.32,1.53.88-1.71.99-1.53-.88-7.6,4.39-2.21-1.28,7.6-4.39Z"/><path class="cls-17" d="m123.29,256.01l-4.61-2.66,2.34-1.35,12.08-1.5,1.98,1.14-7.58,4.37,1.45.84-2.11,1.22-1.45-.84-2.92,1.68-2.1-1.21,2.92-1.68Zm6.48-3.74l-.05-.03-7.2.9,2.87,1.66,4.37-2.53Z"/><rect class="cls-17" x="711.91" y="25.92" width="17.05" height="10.06"/><rect class="cls-17" x="711.91" y="37.26" width="17.05" height="18.5"/><rect class="cls-17" x="730.25" y="25.92" width="17.05" height="10.06"/><path class="cls-17" d="m734.51,37.26c-2.73,0-4.26,1.53-4.26,4.26v9.98c0,2.73,1.53,4.26,4.26,4.26h12.79v-18.5h-12.79Z"/><rect class="cls-17" x="766.91" y="25.92" width="17.05" height="29.84"/><path class="cls-17" d="m798.04,25.92h-12.79v29.84h12.79c2.73,0,4.26-1.58,4.26-4.31v-21.28c0-2.73-1.53-4.26-4.26-4.26Z"/><path class="cls-17" d="m761.37,25.92h-12.79v29.84h17.05v-25.58c0-2.73-1.53-4.26-4.26-4.26Z"/><path class="cls-8" d="m37.47,507.64l199.61-115.39s.07-.02.1,0l327.76,190.08c.07.04.07.13,0,.17l-199.81,115.39s-.07.02-.1,0L37.47,507.81c-.07-.04-.07-.13,0-.17Z"/><path class="cls-8" d="m181.32,834.55l124.66-72.38s.07-.02.1,0l476.46,277.11c.07.04.07.13,0,.17l-128.15,73.99s-.07.02-.1,0l-134.88-76.98s-.07-.02-.1,0l-146.22,83.97s-.07.02-.1,0l-195.82-113.78c-.07-.04-.07-.13,0-.17l149.34-87.11c.07-.04.07-.13,0-.17l-145.19-84.48c-.07-.04-.07-.13,0-.17Z"/><line class="cls-8" x1="326.66" y1="919.29" x2="452.91" y2="847.42"/><path class="cls-8" d="m298.51,75.99L71.73,206.91c-.07.04-.07.13,0,.17l226.72,130.58s.07.02.1,0l211.72-122"/></svg>